<?xml version="1.0" encoding="iso-8859-1"?>
<!-- Generator: Adobe Illustrator 19.0.0, SVG Export Plug-In . SVG Version: 6.00 Build 0)  -->
<svg version="1.1" id="Capa_1" xmlns="http://www.w3.org/2000/svg" xmlns:xlink="http://www.w3.org/1999/xlink" x="0px" y="0px"
	 viewBox="0 0 512 512" style="enable-background:new 0 0 512 512;" xml:space="preserve">
<g>
	<g transform="translate(1 1)">
		
			<linearGradient id="SVGID_1_" gradientUnits="userSpaceOnUse" x1="-49.9009" y1="651.2194" x2="-48.9009" y2="651.2194" gradientTransform="matrix(494.9333 0 0 -494.9333 24705.1582 322565.1875)">
			<stop  offset="0" style="stop-color:#CCDBF2"/>
			<stop  offset="0.1717" style="stop-color:#CCDBF2"/>
			<stop  offset="0.2" style="stop-color:#CCDBF2"/>
			<stop  offset="0.2003" style="stop-color:#DAE1F2"/>
			<stop  offset="0.2008" style="stop-color:#EBE9F3"/>
			<stop  offset="0.2015" style="stop-color:#F6EFF3"/>
			<stop  offset="0.2024" style="stop-color:#FDF2F3"/>
			<stop  offset="0.205" style="stop-color:#FFF3F3"/>
			<stop  offset="0.2522" style="stop-color:#FFF3F3"/>
			<stop  offset="0.26" style="stop-color:#FFF3F3"/>
			<stop  offset="0.26" style="stop-color:#CCDBF2"/>
			<stop  offset="0.3974" style="stop-color:#CCDBF2"/>
			<stop  offset="0.42" style="stop-color:#CCDBF2"/>
			<stop  offset="0.4203" style="stop-color:#DAE1F2"/>
			<stop  offset="0.4208" style="stop-color:#EBE9F3"/>
			<stop  offset="0.4215" style="stop-color:#F6EFF3"/>
			<stop  offset="0.4224" style="stop-color:#FDF2F3"/>
			<stop  offset="0.425" style="stop-color:#FFF3F3"/>
			<stop  offset="0.4894" style="stop-color:#FFF3F3"/>
			<stop  offset="0.5" style="stop-color:#FFF3F3"/>
			<stop  offset="0.5001" style="stop-color:#F1EDF3"/>
			<stop  offset="0.5002" style="stop-color:#E0E5F2"/>
			<stop  offset="0.5003" style="stop-color:#D5DFF2"/>
			<stop  offset="0.5005" style="stop-color:#CEDCF2"/>
			<stop  offset="0.501" style="stop-color:#CCDBF2"/>
			<stop  offset="0.7062" style="stop-color:#CCDBF2"/>
			<stop  offset="0.74" style="stop-color:#CCDBF2"/>
			<stop  offset="0.741" style="stop-color:#FFF3F3"/>
			<stop  offset="0.8346" style="stop-color:#FFF3F3"/>
			<stop  offset="0.85" style="stop-color:#FFF3F3"/>
			<stop  offset="0.851" style="stop-color:#CCDBF2"/>
		</linearGradient>
		<polygon style="fill:url(#SVGID_1_);" points="383,348.867 468.333,306.2 468.333,67.267 383,109.934 314.733,7.534 
			246.467,41.667 195.267,16.067 7.533,109.934 7.533,348.867 101.4,395.8 101.4,442.734 195.267,442.734 314.733,502.467 
			502.467,408.6 		"/>
		<polygon style="fill:#DEE2F0;" points="195.267,203.8 101.4,203.8 101.4,395.8 7.533,348.867 7.533,109.934 		"/>
		<polygon style="fill:#FFFFFF;" points="33.133,357.4 101.4,391.534 101.4,395.8 7.533,348.867 7.533,109.934 195.267,16.067 
			216.6,26.734 33.133,118.467 		"/>
		<rect x="101.4" y="203.8" style="fill:#DEE2F0;" width="93.867" height="238.933"/>
		<polygon style="fill:#6D9AFA;" points="383,348.867 195.267,442.734 195.267,255 		"/>
		<g>
			<polygon style="fill:#DEE2F0;" points="502.467,408.6 314.733,502.467 195.267,442.734 383,348.867 			"/>
			<polygon style="fill:#DEE2F0;" points="383,109.934 195.267,203.8 127,101.4 314.733,7.534 			"/>
		</g>
		<polygon style="fill:#6D9AFA;" points="383,109.934 383,348.867 195.267,255 195.267,203.8 		"/>
		<polygon style="fill:#95B4F6;" points="468.333,67.267 468.333,306.2 383,348.867 383,109.934 		"/>
	</g>
	<g>
		<polygon style="fill:#FFFFFF;" points="17.067,110.934 17.067,221.867 17.067,349.867 0,349.867 0,221.867 0,110.934 		"/>
		<g>
			<path style="fill:#428DFF;" d="M8.533,187.734c2.259-0.034,4.422-0.918,6.059-2.475c3.3-3.365,3.3-8.752,0-12.117l-1.279-1.025
				c-0.476-0.324-0.993-0.583-1.538-0.771c-0.484-0.246-1.003-0.417-1.538-0.509c-0.563-0.096-1.133-0.153-1.704-0.171
				c-2.259,0.031-4.423,0.915-6.059,2.475c-3.222,3.397-3.222,8.721,0,12.117c0.815,0.771,1.77,1.379,2.813,1.792
				C6.314,187.489,7.417,187.721,8.533,187.734z"/>
			<path style="fill:#428DFF;" d="M507.283,401.967l-104.2-52.1l70.067-35.033c0.343-0.228,0.669-0.482,0.973-0.76
				c0.517-0.32,0.998-0.695,1.434-1.119c0.64-0.873,1.211-1.796,1.706-2.759c0.187-0.587,0.309-1.192,0.364-1.806
				c0.11-0.39,0.19-0.788,0.24-1.19V68.267c-0.001-2.957-1.533-5.703-4.048-7.257c-2.515-1.555-5.656-1.697-8.302-0.376
				l-78.596,39.298L322.833,3.8c-2.388-3.579-7.067-4.822-10.917-2.9l-64.45,32.225L200.083,9.434
				c-0.188-0.094-0.391-0.079-0.582-0.158c-2.087-0.783-4.388-0.782-6.475,0.002c-0.189,0.078-0.391,0.063-0.577,0.156L4.717,103.3
				c-0.274,0.187-0.536,0.392-0.784,0.612c-0.486,0.303-0.939,0.657-1.352,1.055c-0.408,0.42-0.769,0.882-1.078,1.379
				c-0.216,0.244-0.418,0.502-0.603,0.77c-0.092,0.184-0.077,0.383-0.154,0.57c-0.366,1.047-0.588,2.139-0.66,3.246H0v34.133
				c0,4.713,3.821,8.533,8.533,8.533s8.533-3.821,8.533-8.533v-20.325l143.05,71.525H102.4c-2.263-0.001-4.434,0.898-6.035,2.499
				c-1.6,1.6-2.499,3.771-2.499,6.035v178.192l-76.8-38.4V213.334c0-4.713-3.821-8.533-8.533-8.533S0,208.621,0,213.334v136.533
				h0.085c-0.032,3.218,1.763,6.176,4.632,7.633l89.15,44.575v41.658c-0.001,2.263,0.898,4.434,2.499,6.035s3.771,2.499,6.035,2.499
				h91.85L311.917,511.1c2.403,1.2,5.23,1.2,7.633,0l187.733-93.867c2.891-1.446,4.717-4.401,4.717-7.633
				S510.174,403.413,507.283,401.967z M375.467,336.059L204.8,250.725v-40.65l170.667-85.333V336.059z M204.8,269.809
				l160.117,80.058L204.8,429.925V269.809z M460.8,301.925l-68.267,34.133v-219.85L460.8,82.075V301.925z M312.808,19.534
				l58.729,88.09l-172.35,86.175l-58.729-88.09L312.808,19.534z M124.183,94.767c-2.19,1.094-3.805,3.076-4.433,5.442
				c-0.628,2.366-0.209,4.888,1.15,6.925l50.442,75.663L27.617,110.934l168.65-84.325l32.117,16.058L124.183,94.767z M187.733,435.2
				h-76.8V213.334h76.8V435.2z M315.733,493.925l-100.387-50.194L384,359.409L484.383,409.6L315.733,493.925z"/>
		</g>
	</g>
</g>
<g>
</g>
<g>
</g>
<g>
</g>
<g>
</g>
<g>
</g>
<g>
</g>
<g>
</g>
<g>
</g>
<g>
</g>
<g>
</g>
<g>
</g>
<g>
</g>
<g>
</g>
<g>
</g>
<g>
</g>
</svg>
