<?xml version="1.0" encoding="iso-8859-1"?>
<!-- Generator: Adobe Illustrator 19.0.0, SVG Export Plug-In . SVG Version: 6.00 Build 0)  -->
<svg version="1.1" id="Capa_1" xmlns="http://www.w3.org/2000/svg" xmlns:xlink="http://www.w3.org/1999/xlink" x="0px" y="0px"
	 viewBox="0 0 512 512" style="enable-background:new 0 0 512 512;" xml:space="preserve">
<g>
	<g transform="translate(1 1)">
		<polygon style="fill:#6D9AFA;" points="408.6,16.067 331.8,54.467 297.667,37.401 357.4,7.534 255,16.067 16.067,135.534 
			16.067,383.001 255,502.467 493.933,383.001 493.933,135.534 		"/>
		<polygon style="fill:#DEE2F0;" points="255,255.001 255,502.467 16.067,383.001 16.067,135.534 		"/>
		<polygon style="fill:#95B4F6;" points="493.933,135.534 493.933,383.001 255,502.467 255,255.001 		"/>
		<g>
			<polygon style="fill:#CCDBF2;" points="493.933,135.534 255,255.001 169.667,135.534 408.6,16.067 			"/>
			<polygon style="fill:#CCDBF2;" points="357.4,7.534 118.467,127.001 16.067,135.534 255,16.067 			"/>
			<path style="fill:#CCDBF2;" d="M212.333,459.801c-2.263,0.001-4.434-0.898-6.035-2.499c-1.6-1.6-2.499-3.771-2.499-6.035v-42.667
				c0-3.451,2.079-6.563,5.268-7.883s6.859-0.59,9.299,1.85l17.067,17.067c2.188,2.149,3.055,5.307,2.27,8.271
				c-0.785,2.965-3.1,5.28-6.065,6.065c-2.965,0.785-6.122-0.082-8.271-2.27l-2.5-2.5v22.067c0.001,2.263-0.898,4.434-2.499,6.035
				C216.768,458.902,214.597,459.801,212.333,459.801z"/>
			<path style="fill:#CCDBF2;" d="M161.133,434.201c-2.263,0.001-4.434-0.898-6.035-2.499c-1.6-1.6-2.499-3.771-2.499-6.035v-42.667
				c0-3.451,2.079-6.563,5.268-7.883c3.189-1.321,6.859-0.59,9.299,1.85l17.067,17.067c2.188,2.149,3.055,5.307,2.27,8.271
				c-0.785,2.965-3.1,5.28-6.065,6.065c-2.965,0.785-6.122-0.082-8.271-2.27l-2.5-2.5v22.067c0.001,2.263-0.898,4.434-2.499,6.035
				C165.568,433.302,163.397,434.201,161.133,434.201z"/>
			<path style="fill:#CCDBF2;" d="M212.333,459.801c-1.325-0.001-2.631-0.309-3.817-0.9l-51.2-25.6
				c-2.891-1.446-4.717-4.401-4.717-7.633v-28.858l-4.717,2.358c-2.728,1.372-5.982,1.182-8.532-0.499
				c-2.55-1.681-4.007-4.596-3.822-7.644c0.185-3.048,1.985-5.765,4.72-7.124l17.067-8.533c2.646-1.321,5.786-1.179,8.302,0.376
				c2.515,1.555,4.047,4.3,4.048,7.257v37.392l34.133,17.067v-15.05l-4.717,2.358c-2.728,1.372-5.982,1.182-8.531-0.499
				c-2.55-1.681-4.007-4.596-3.822-7.644c0.185-3.048,1.985-5.765,4.72-7.124l17.067-8.533c2.646-1.321,5.786-1.179,8.302,0.376
				c2.515,1.555,4.047,4.3,4.048,7.257v42.667C220.864,455.979,217.045,459.798,212.333,459.801z"/>
			<path style="fill:#CCDBF2;" d="M297.667,459.801c-2.263,0.001-4.434-0.898-6.035-2.499c-1.6-1.6-2.499-3.771-2.499-6.035v-22.067
				l-2.5,2.5c-3.338,3.296-8.711,3.279-12.029-0.038c-3.317-3.317-3.334-8.691-0.038-12.029l17.067-17.067
				c2.44-2.441,6.11-3.171,9.299-1.85c3.189,1.321,5.268,4.432,5.268,7.883v42.667c0.001,2.263-0.898,4.434-2.499,6.035
				C302.101,458.902,299.93,459.801,297.667,459.801z"/>
			<path style="fill:#CCDBF2;" d="M297.667,459.801c-4.712-0.003-8.53-3.822-8.533-8.533v-42.667
				c0.001-2.957,1.533-5.703,4.048-7.257c2.515-1.555,5.656-1.697,8.302-0.376l17.067,8.533c4.204,2.114,5.903,7.232,3.799,11.441
				c-2.104,4.209-7.218,5.92-11.432,3.826l-4.717-2.358v15.05l34.133-17.067v-37.392c0.001-2.957,1.533-5.703,4.048-7.257
				c2.515-1.555,5.656-1.697,8.302-0.376l17.067,8.533c4.204,2.114,5.903,7.232,3.798,11.441c-2.104,4.209-7.218,5.92-11.432,3.826
				l-4.717-2.358v28.858c0.001,3.232-1.825,6.188-4.717,7.633l-51.2,25.6C300.298,459.492,298.991,459.8,297.667,459.801z"/>
			<path style="fill:#CCDBF2;" d="M348.867,434.201c-2.263,0.001-4.434-0.898-6.035-2.499c-1.6-1.6-2.499-3.771-2.499-6.035V403.6
				l-2.5,2.5c-3.338,3.296-8.711,3.279-12.029-0.038c-3.317-3.317-3.334-8.691-0.038-12.029l17.067-17.067
				c2.44-2.441,6.11-3.171,9.299-1.85s5.268,4.432,5.268,7.883v42.667c0.001,2.263-0.898,4.434-2.499,6.035
				C353.301,433.302,351.13,434.201,348.867,434.201z"/>
		</g>
		<polygon style="fill:#FFFFFF;" points="357.4,7.534 331.8,20.334 280.6,24.601 41.667,144.067 41.667,391.534 255,498.201 
			255,502.467 16.067,383.001 16.067,135.534 255,16.067 		"/>
	</g>
	<g>
		<polygon style="fill:#FFFFFF;" points="25.6,136.534 25.6,247.467 25.6,384.001 8.533,384.001 8.533,247.467 8.533,136.534 		"/>
		<g>
			<path style="fill:#428DFF;" d="M503.345,135.593c-0.022-0.196-0.04-0.393-0.075-0.585c-0.028-0.151-0.022-0.299-0.058-0.449
				c-0.137-0.518-0.322-1.021-0.554-1.504c-0.049-0.11-0.037-0.229-0.092-0.338c-0.023-0.046-0.068-0.072-0.092-0.118
				c-0.145-0.256-0.303-0.504-0.473-0.743c-0.058-0.089-0.064-0.194-0.126-0.281L416.542,12.109
				c-2.443-3.413-7.002-4.546-10.758-2.675L332.8,45.926l-15.05-7.525l44.467-22.233c3.659-1.83,5.505-5.998,4.4-9.937
				s-4.849-6.54-8.925-6.201L255.464,8.549l-0.013,0.001l-0.159,0.013c-0.522,0.097-1.033,0.246-1.525,0.443
				c-0.541,0.089-1.071,0.233-1.583,0.428L13.25,128.901l-0.077,0.053c-0.115,0.06-0.201,0.151-0.312,0.215
				c-0.34,0.201-0.666,0.425-0.975,0.671c-0.143,0.11-0.303,0.183-0.439,0.303c-0.209,0.202-0.407,0.415-0.593,0.638
				c-0.186,0.2-0.346,0.402-0.512,0.619c-0.271,0.343-0.515,0.708-0.73,1.089c-0.048,0.087-0.133,0.138-0.178,0.228
				c-0.073,0.145-0.059,0.304-0.122,0.451c-0.053,0.122-0.114,0.24-0.161,0.365c-0.062,0.162-0.155,0.3-0.206,0.467
				c-0.134,0.494-0.223,1-0.267,1.51c-0.029,0.24-0.091,0.469-0.099,0.709c-0.005,0.107-0.045,0.207-0.045,0.315v34.133
				c0,4.713,3.821,8.533,8.533,8.533s8.533-3.821,8.533-8.533v-20.325l221.867,110.933v228.383L25.6,378.726V238.934
				c0-4.713-3.821-8.533-8.533-8.533s-8.533,3.821-8.533,8.533v145.067h0.085c-0.032,3.218,1.763,6.176,4.632,7.633l238.933,119.467
				c0.127,0.063,0.271,0.038,0.4,0.094c2.151,1.074,4.682,1.074,6.833,0c0.129-0.056,0.273-0.031,0.4-0.094L498.75,391.634
				c2.891-1.446,4.717-4.401,4.717-7.633V136.534c0-0.112-0.038-0.217-0.042-0.329C503.417,135.997,503.369,135.801,503.345,135.593
				z M406.892,27.959l75.295,105.407L258.703,245.107L183.417,139.7L406.892,27.959z M313.717,55.467L166.85,128.901
				c-2.233,1.115-3.865,3.153-4.467,5.575c-0.601,2.422-0.111,4.987,1.342,7.017l65.365,91.512L48.104,142.51l72.071-6.006
				c1.082-0.092,2.136-0.387,3.108-0.871l175.383-87.692L313.717,55.467z M117.117,119.634l-56.599,4.716l197.831-98.915
				l56.602-4.718L117.117,119.634z M486.4,378.726L264.533,489.659V261.275L486.4,150.342V378.726z"/>
			<path style="fill:#428DFF;" d="M17.067,213.334c2.259-0.034,4.422-0.918,6.059-2.475c3.3-3.365,3.3-8.752,0-12.117l-1.279-1.025
				c-0.476-0.324-0.993-0.583-1.538-0.771c-0.484-0.246-1.003-0.417-1.538-0.509c-0.563-0.096-1.133-0.153-1.704-0.171
				c-2.259,0.031-4.423,0.915-6.059,2.475c-3.221,3.397-3.221,8.72,0,12.117c0.815,0.77,1.77,1.379,2.813,1.792
				C14.847,213.088,15.95,213.321,17.067,213.334z"/>
			<path style="fill:#428DFF;" d="M173.167,407.1c2.149,2.188,5.307,3.055,8.271,2.27c2.965-0.785,5.28-3.1,6.065-6.065
				c0.785-2.965-0.082-6.122-2.27-8.271l-17.067-17.067c-0.134-0.134-0.305-0.206-0.445-0.329c-0.342-0.329-0.712-0.629-1.105-0.896
				c-0.087-0.054-0.186-0.074-0.275-0.125c-0.263-0.137-0.533-0.26-0.809-0.368c-1.171-0.521-2.447-0.766-3.728-0.718
				c-0.288,0.008-0.576,0.032-0.861,0.07c-0.512,0.078-1.015,0.203-1.504,0.373c-0.189,0.063-0.386,0.066-0.573,0.142
				c-0.085,0.035-0.147,0.101-0.23,0.139c-0.104,0.047-0.217,0.06-0.32,0.111l-17.067,8.533c-2.735,1.359-4.535,4.076-4.72,7.124
				c-0.185,3.048,1.272,5.963,3.822,7.644c2.55,1.681,5.803,1.871,8.532,0.498l4.717-2.358v28.858
				c0.02,1.013,0.222,2.014,0.596,2.956c0.097,0.254,0.208,0.503,0.33,0.746c0.348,0.719,0.797,1.385,1.332,1.977
				c0.129,0.143,0.223,0.304,0.361,0.438c0.617,0.61,1.324,1.122,2.096,1.517l51.2,25.6c0.075,0.037,0.161,0.021,0.236,0.056
				c1.116,0.543,2.339,0.831,3.58,0.844c1.004-0.022,1.996-0.223,2.93-0.591c0.518-0.228,1.036-0.456,1.554-0.684
				c0.469-0.308,0.906-0.662,1.304-1.057c0.095-0.089,0.207-0.149,0.298-0.242c0.66-0.691,1.198-1.49,1.591-2.36
				c0.101-0.215,0.179-0.428,0.262-0.652c0.373-0.939,0.574-1.937,0.594-2.947v-22.067l2.5,2.5c2.151,2.178,5.304,3.037,8.262,2.251
				c2.958-0.786,5.269-3.097,6.055-6.055s-0.073-6.111-2.251-8.262l-17.067-17.067c-0.132-0.132-0.302-0.204-0.441-0.326
				c-0.344-0.33-0.715-0.631-1.109-0.899c-0.089-0.055-0.189-0.076-0.279-0.127c-0.71-0.35-1.448-0.639-2.207-0.863
				c-0.274-0.062-0.551-0.109-0.829-0.143c-0.501-0.071-1.007-0.097-1.513-0.077c-0.281,0.009-0.561,0.032-0.839,0.069
				c-0.515,0.078-1.021,0.203-1.513,0.374c-0.188,0.063-0.385,0.065-0.57,0.141c-0.085,0.035-0.147,0.101-0.23,0.139
				c-0.104,0.047-0.217,0.06-0.32,0.111l-17.067,8.533c-2.735,1.359-4.535,4.076-4.72,7.124c-0.185,3.048,1.272,5.963,3.822,7.644
				c2.55,1.681,5.803,1.871,8.532,0.499l4.717-2.358v15.05l-34.133-17.067V404.6L173.167,407.1z"/>
			<path style="fill:#428DFF;" d="M287.633,432.7l2.5-2.5v22.067c0.02,1.01,0.221,2.009,0.595,2.948
				c0.083,0.223,0.161,0.435,0.262,0.65c0.393,0.871,0.931,1.669,1.591,2.36c0.092,0.093,0.205,0.155,0.301,0.244
				c0.398,0.394,0.834,0.748,1.302,1.056c0.248,0.124,0.502,0.236,0.761,0.335c0.258,0.13,0.522,0.247,0.793,0.348
				c2.103,0.87,4.481,0.777,6.51-0.253c0.076-0.035,0.161-0.019,0.236-0.056l51.2-25.6c0.772-0.395,1.479-0.907,2.096-1.517
				c0.138-0.133,0.233-0.295,0.362-0.438c0.535-0.592,0.983-1.257,1.331-1.975c0.122-0.249,0.234-0.488,0.332-0.75
				c0.374-0.941,0.576-1.941,0.595-2.954v-28.858l4.717,2.358c4.214,2.094,9.328,0.383,11.432-3.826
				c2.104-4.209,0.405-9.327-3.798-11.441l-17.067-8.533c-0.102-0.051-0.213-0.064-0.316-0.109
				c-0.084-0.038-0.148-0.105-0.234-0.141c-0.199-0.082-0.411-0.086-0.614-0.153c-0.461-0.158-0.935-0.276-1.417-0.353
				c-0.322-0.045-0.646-0.071-0.97-0.079c-0.452-0.014-0.905,0.009-1.353,0.068c-0.323,0.036-0.644,0.091-0.96,0.165
				c-0.447,0.119-0.884,0.275-1.306,0.465c-0.295,0.114-0.583,0.244-0.863,0.391c-0.086,0.049-0.182,0.069-0.267,0.121
				c-0.389,0.265-0.756,0.562-1.095,0.888c-0.144,0.126-0.318,0.201-0.455,0.337l-17.067,17.067
				c-3.32,3.334-3.315,8.727,0.013,12.054c3.327,3.327,8.72,3.333,12.054,0.012l2.5-2.5v16.792L307.2,438.458v-15.05l4.717,2.358
				c4.214,2.094,9.328,0.383,11.432-3.826c2.104-4.209,0.405-9.327-3.799-11.441l-17.067-8.533c-0.102-0.051-0.213-0.064-0.317-0.11
				c-0.084-0.038-0.147-0.104-0.233-0.14c-0.195-0.081-0.403-0.084-0.601-0.15c-0.469-0.162-0.952-0.282-1.442-0.359
				c-1.084-0.137-2.184-0.085-3.251,0.153c-0.467,0.123-0.922,0.285-1.361,0.485c-0.277,0.108-0.548,0.231-0.812,0.368
				c-0.091,0.051-0.193,0.073-0.282,0.128c-0.395,0.268-0.766,0.569-1.11,0.9c-0.139,0.122-0.308,0.193-0.44,0.325l-17.067,17.067
				c-3.288,3.339-3.267,8.706,0.047,12.019C278.927,435.967,284.294,435.988,287.633,432.7z"/>
		</g>
	</g>
</g>
<g>
</g>
<g>
</g>
<g>
</g>
<g>
</g>
<g>
</g>
<g>
</g>
<g>
</g>
<g>
</g>
<g>
</g>
<g>
</g>
<g>
</g>
<g>
</g>
<g>
</g>
<g>
</g>
<g>
</g>
</svg>
