<?xml version="1.0" encoding="iso-8859-1"?>
<!-- Generator: Adobe Illustrator 19.0.0, SVG Export Plug-In . SVG Version: 6.00 Build 0)  -->
<svg version="1.1" id="Capa_1" xmlns="http://www.w3.org/2000/svg" xmlns:xlink="http://www.w3.org/1999/xlink" x="0px" y="0px"
	 viewBox="0 0 512.046 512.046" style="enable-background:new 0 0 512.046 512.046;" xml:space="preserve">
<g transform="translate(-1 -1)">
	<g transform="translate(2)">
		
			<linearGradient id="SVGID_1_" gradientUnits="userSpaceOnUse" x1="-49.7801" y1="653.6412" x2="-48.7937" y2="652.8721" gradientTransform="matrix(392.5334 0 0 -503.507 19607.6113 329175.875)">
			<stop  offset="0" style="stop-color:#D3DFF2"/>
			<stop  offset="0.1717" style="stop-color:#D3DFF2"/>
			<stop  offset="0.2" style="stop-color:#D3DFF2"/>
			<stop  offset="0.2002" style="stop-color:#DAE2F2"/>
			<stop  offset="0.2007" style="stop-color:#EBEAF2"/>
			<stop  offset="0.2014" style="stop-color:#F6EFF2"/>
			<stop  offset="0.2023" style="stop-color:#FDF2F2"/>
			<stop  offset="0.205" style="stop-color:#FFF3F2"/>
			<stop  offset="0.2522" style="stop-color:#FFF3F2"/>
			<stop  offset="0.26" style="stop-color:#FFF3F2"/>
			<stop  offset="0.26" style="stop-color:#D3DFF2"/>
			<stop  offset="0.3974" style="stop-color:#D3DFF2"/>
			<stop  offset="0.42" style="stop-color:#D3DFF2"/>
			<stop  offset="0.4202" style="stop-color:#DAE2F2"/>
			<stop  offset="0.4207" style="stop-color:#EBEAF2"/>
			<stop  offset="0.4214" style="stop-color:#F6EFF2"/>
			<stop  offset="0.4223" style="stop-color:#FDF2F2"/>
			<stop  offset="0.425" style="stop-color:#FFF3F2"/>
			<stop  offset="0.4894" style="stop-color:#FFF3F2"/>
			<stop  offset="0.5" style="stop-color:#FFF3F2"/>
			<stop  offset="0.5" style="stop-color:#F8F0F2"/>
			<stop  offset="0.5001" style="stop-color:#E7E8F2"/>
			<stop  offset="0.5003" style="stop-color:#DCE3F2"/>
			<stop  offset="0.5005" style="stop-color:#D5E0F2"/>
			<stop  offset="0.501" style="stop-color:#D3DFF2"/>
			<stop  offset="0.7062" style="stop-color:#D3DFF2"/>
			<stop  offset="0.74" style="stop-color:#D3DFF2"/>
			<stop  offset="0.741" style="stop-color:#FFF3F2"/>
			<stop  offset="0.8346" style="stop-color:#FFF3F2"/>
			<stop  offset="0.85" style="stop-color:#FFF3F2"/>
			<stop  offset="0.851" style="stop-color:#D3DFF2"/>
		</linearGradient>
		<path style="fill:url(#SVGID_1_);" d="M389.9,134.587l-12.059-6.056c0.851-1.561,1.181-3.354,0.941-5.116
			C370.64,72.49,344.59,26.344,313.957,8.574c-12.808-8.711-29.268-10-43.275-3.388c-16.367,8.204-27.311,27.45-31.118,54.233
			L161.207,20.24l-44.373,22.187L58.807,71.44v288L348.94,504.507l102.4-51.2v-288L389.9,134.587z M278.332,20.445
			c8.912-3.835,19.18-2.734,27.075,2.904c24.844,14.408,47.121,53.602,55.41,96.657l-105.69-52.809
			c0.465-0.864,0.774-1.803,0.913-2.774C258.682,42.244,266.807,26.215,278.332,20.445L278.332,20.445z"/>
		<polygon style="fill:#DEE2F0;" points="400.14,190.907 400.14,419.174 348.94,504.507 348.94,216.507 		"/>
		<polygon style="fill:#95B4F6;" points="451.34,165.307 348.94,216.507 161.207,122.64 161.207,20.24 247.564,63.419 
			370.359,124.774 389.9,134.587 		"/>
		<polygon style="fill:#DEE2F0;" points="451.34,165.307 451.34,453.307 400.14,419.174 400.14,190.907 		"/>
		<polygon style="fill:#6D9AFA;" points="118.54,45.84 118.54,97.04 116.834,100.454 58.807,71.44 116.834,42.427 		"/>
		<polygon style="fill:#95B4F6;" points="451.34,453.307 348.94,504.507 400.14,419.174 		"/>
		<polygon style="fill:#6D9AFA;" points="161.207,20.24 161.207,122.64 116.834,100.454 118.54,97.04 118.54,45.84 116.834,42.427 
					"/>
		<polygon style="fill:#FFFFFF;" points="353.207,502.374 348.94,504.507 58.807,359.44 58.807,71.44 116.834,42.427 161.207,20.24 
			182.54,30.907 142.434,50.96 84.407,79.974 84.407,367.974 		"/>
	</g>
	<g>
		<polygon style="fill:#FFFFFF;" points="69.34,71.432 69.34,182.365 69.34,359.44 52.274,359.44 52.274,182.365 52.274,71.432 		
			"/>
		<g>
			<path style="fill:#428DFF;" d="M52.274,359.44h0.085c-0.032,3.218,1.763,6.176,4.632,7.633L347.124,512.14
				c0.117,0.058,0.252,0.035,0.371,0.088l0.111,0.047c1.02,0.548,2.169,0.812,3.326,0.765l0.005-0.001l0.003,0.001l0.004-0.001
				l0.004,0.001c0.688-0.004,1.373-0.092,2.039-0.261l0.177-0.046c0.193-0.052,0.368-0.153,0.557-0.218
				c0.353-0.102,0.699-0.227,1.035-0.374l102.4-51.2l0.047-0.037c0.743-0.385,1.425-0.878,2.023-1.463
				c0.124-0.119,0.219-0.253,0.336-0.379c0.158-0.171,0.299-0.337,0.441-0.518c0.138-0.177,0.309-0.314,0.435-0.503
				c0.148-0.223,0.167-0.482,0.292-0.713c0.203-0.329,0.382-0.671,0.537-1.025c0.097-0.288,0.178-0.581,0.243-0.878
				c0.108-0.449,0.178-0.906,0.209-1.366c0.024-0.26,0.152-0.485,0.152-0.751V165.298c0-0.108-0.04-0.207-0.044-0.315
				c-0.009-0.241-0.07-0.469-0.099-0.709c-0.097-0.807-0.31-1.596-0.634-2.342c-0.064-0.147-0.049-0.306-0.122-0.451
				c-0.045-0.09-0.13-0.141-0.178-0.228c-0.468-0.885-1.089-1.679-1.835-2.347c-0.135-0.119-0.294-0.19-0.435-0.299
				c-0.424-0.359-0.882-0.675-1.368-0.943l-77.167-38.583c-8.892-49.187-34.274-93.245-64.033-110.508
				c-12.808-8.711-29.268-10-43.275-3.388c-14.522,7.279-24.787,23.244-29.586,45.449l-76.072-38.036
				c-0.083-0.041-0.173-0.031-0.257-0.07c-0.185-0.086-0.367-0.152-0.559-0.224c-0.474-0.151-0.961-0.258-1.455-0.322
				c-0.426-0.112-0.86-0.19-1.298-0.234c-0.087-0.003-0.16-0.05-0.247-0.05s-0.161,0.047-0.248,0.05
				c-0.926,0.148-1.846,0.334-2.757,0.557c-0.19,0.072-0.37,0.138-0.553,0.223c-0.084,0.039-0.175,0.028-0.258,0.07l-102.4,51.2
				c-0.277,0.189-0.542,0.396-0.793,0.619c-0.994,0.6-1.826,1.434-2.423,2.429c-0.216,0.244-0.417,0.501-0.601,0.769
				c-0.092,0.184-0.077,0.383-0.154,0.57c-0.366,1.047-0.588,2.139-0.66,3.246v0.002h-0.085v34.133c0,4.713,3.821,8.533,8.533,8.533
				s8.533-3.821,8.533-8.533V85.24l273.067,136.533v268.925L69.34,354.165V173.834c0-4.713-3.821-8.533-8.533-8.533
				s-8.533,3.821-8.533,8.533V359.44z M404.853,431.238l31.518,21.012l-63.036,31.518L404.853,431.238z M444.807,437.363
				l-34.133-22.756V196.174l34.133-17.067V437.363z M393.607,416.811l-34.133,56.888V223.347c1.133-0.999,2.208-2.061,3.22-3.183
				l30.914-15.457V416.811z M280.332,20.445c8.912-3.835,19.18-2.734,27.075,2.904c22.775,13.208,43.423,47.24,53.09,85.987
				L258.949,58.562C262.245,39.461,269.86,25.688,280.332,20.445z M171.74,76.278c9.293-8.379,23.187-9.095,33.292-1.717
				c18.093,12.356,32.124,29.791,40.325,50.108c5.363,11.495,9.589,23.487,12.617,35.804l-86.234-43.117V76.278z M154.674,69.651
				c-7.014,9.542-11.799,20.536-14,32.173l-11.6-5.8V46.84l25.6-12.8V69.651z M112.007,87.49L79.89,71.432l32.117-16.058V87.49z
				 M281.161,172.067c-1.814-3.216-3.589-6.588-5.261-10.161c-3.352-15.348-8.415-30.272-15.093-44.491
				c-9.66-23.49-26.113-43.561-47.25-57.642c-12.449-8.107-28.099-9.544-41.817-3.84V34.04l262.517,131.258l-83.317,41.659
				L281.161,172.067z"/>
			<path style="fill:#428DFF;" d="M60.807,148.234c3.45-0.014,6.556-2.096,7.879-5.282c1.323-3.187,0.606-6.856-1.82-9.31
				l-1.279-1.025c-0.476-0.324-0.993-0.583-1.538-0.771c-0.484-0.246-1.002-0.417-1.537-0.508c-0.564-0.096-1.133-0.153-1.705-0.17
				c-2.259,0.031-4.423,0.915-6.059,2.475c-2.07,1.994-2.979,4.908-2.409,7.726c0.57,2.818,2.539,5.149,5.222,6.183
				C58.588,147.988,59.69,148.22,60.807,148.234z"/>
		</g>
	</g>
</g>
<g>
</g>
<g>
</g>
<g>
</g>
<g>
</g>
<g>
</g>
<g>
</g>
<g>
</g>
<g>
</g>
<g>
</g>
<g>
</g>
<g>
</g>
<g>
</g>
<g>
</g>
<g>
</g>
<g>
</g>
</svg>
