<?xml version="1.0" encoding="iso-8859-1"?>
<!-- Generator: Adobe Illustrator 19.0.0, SVG Export Plug-In . SVG Version: 6.00 Build 0)  -->
<svg version="1.1" id="Capa_1" xmlns="http://www.w3.org/2000/svg" xmlns:xlink="http://www.w3.org/1999/xlink" x="0px" y="0px"
	 viewBox="0 0 480 480" style="enable-background:new 0 0 480 480;" xml:space="preserve">
<g>
	<path style="fill:#78B9EB;" d="M200,208c0-30.928-25.072-56-56-56l0,0v56H200z"/>
	<path style="fill:#78B9EB;" d="M248,328h32v48h-32V328z"/>
	<path style="fill:#78B9EB;" d="M304,312h32v64h-32V312z"/>
	<path style="fill:#78B9EB;" d="M360,280h32v96h-32V280z"/>
	<path style="fill:#78B9EB;" d="M344,8v64c0,8.837,7.163,16,16,16h56v-8L344,8z"/>
</g>
<g>
	<path style="fill:#1E81CE;" d="M416.992,69.816l-62.64-62.768c-4.513-4.497-10.62-7.03-16.992-7.048H80C66.745,0,56,10.745,56,24
		v432c0,13.255,10.745,24,24,24h320c13.255,0,24-10.745,24-24V86.768C424.014,80.41,421.492,74.308,416.992,69.816z M408,456
		c0,4.418-3.582,8-8,8H80c-4.418,0-8-3.582-8-8V24c0-4.418,3.582-8,8-8h256v56c0,13.255,10.745,24,24,24h32V80h-32
		c-4.418,0-8-3.582-8-8V27.344l53.664,53.768c1.497,1.501,2.338,3.536,2.336,5.656V456z"/>
	<path style="fill:#1E81CE;" d="M104,48h16v16h-16V48z"/>
	<path style="fill:#1E81CE;" d="M136,48h160v16H136V48z"/>
	<path style="fill:#1E81CE;" d="M104,80h192v16H104V80z"/>
	<path style="fill:#1E81CE;" d="M144,144c-35.346,0-64,28.654-64,64s28.654,64,64,64s64-28.654,64-64
		C207.96,172.67,179.33,144.04,144,144z M191.28,200H152v-39.28C172.1,164.155,187.845,179.9,191.28,200z M144,256
		c-26.509-0.154-47.875-21.768-47.721-48.277c0.134-23.211,16.858-43,39.721-47.003V208c0,4.418,3.582,8,8,8h47.28
		C187.361,239.066,167.397,255.957,144,256z"/>
	<path style="fill:#1E81CE;" d="M392,272h-32c-4.418,0-8,3.582-8,8v88h-8v-56c0-4.418-3.582-8-8-8h-32c-4.418,0-8,3.582-8,8v56h-8
		v-40c0-4.418-3.582-8-8-8h-32c-4.418,0-8,3.582-8,8v40h-8V248h-16v128c0,4.418,3.582,8,8,8h176V280
		C400,275.582,396.418,272,392,272z M256,368v-32h16v32H256z M312,368v-48h16v48H312z M368,368v-80h16v80H368z"/>
	<path style="fill:#1E81CE;" d="M248,168h96v16h-96V168z"/>
	<path style="fill:#1E81CE;" d="M248,200h32v16h-32V200z"/>
	<path style="fill:#1E81CE;" d="M296,200h48v16h-48V200z"/>
	<path style="fill:#1E81CE;" d="M112,296h64v16h-64V296z"/>
	<path style="fill:#1E81CE;" d="M112,328h64v16h-64V328z"/>
</g>
<g>
</g>
<g>
</g>
<g>
</g>
<g>
</g>
<g>
</g>
<g>
</g>
<g>
</g>
<g>
</g>
<g>
</g>
<g>
</g>
<g>
</g>
<g>
</g>
<g>
</g>
<g>
</g>
<g>
</g>
</svg>
